<svg xmlns="http://www.w3.org/2000/svg" version="1.1" xmlns:xlink="http://www.w3.org/1999/xlink" xmlns:svgjs="http://svgjs.dev/svgjs" viewBox="0 0 4.911216394970262 2.5131437790149453"><g transform="matrix(1,0,0,1,2.4046060757176195,0.33447935953293506)"><g><path d=" M 0.5745 0.6375000000000002 C 0.525 0.6405000000000003 0.5055000000000001 0.6555000000000002 0.459 0.6660000000000001 C 0.405 0.5220000000000002 0.0795 0.4890000000000002 0.075 0.43200000000000016 C 0.0675 0.3240000000000002 0.3045 0.08400000000000019 0.441 0.08400000000000019 C 0.453 0.08400000000000019 0.465 0.08550000000000024 0.47550000000000003 0.09000000000000019 C 0.5685 0.12750000000000017 0.495 0.24150000000000016 0.5640000000000001 0.24150000000000016 C 0.582 0.24150000000000016 0.603 0.2190000000000002 0.603 0.20400000000000018 C 0.603 0.09750000000000025 0.534 0.027000000000000246 0.45 0.0015000000000002789 C 0.4395 2.220446049250313e-16 0.429 2.220446049250313e-16 0.4185 2.220446049250313e-16 C 0.2205 2.220446049250313e-16 -0.018000000000000002 0.2565000000000002 -0.018000000000000002 0.39900000000000024 C -0.018000000000000002 0.5730000000000002 0.2175 0.5760000000000003 0.333 0.6510000000000002 C 0.342 0.6570000000000003 0.36 0.6780000000000002 0.363 0.6915000000000002 C 0.258 0.7275000000000003 0.084 0.8280000000000003 0.027 0.9255000000000002 C 0.027 0.9360000000000002 0.075 1.0020000000000002 0.0825 1.0140000000000002 C 0.0915 1.0290000000000001 0.1155 1.0350000000000001 0.132 1.0350000000000001 C 0.28200000000000003 1.0350000000000001 0.47550000000000003 0.8310000000000002 0.46950000000000003 0.7260000000000002 C 0.492 0.7185000000000002 0.603 0.6900000000000002 0.609 0.6825000000000002 L 0.603 0.6810000000000003 L 0.6045 0.6765000000000002 C 0.6045 0.6735000000000002 0.591 0.6645000000000002 0.5865 0.6585000000000002 C 0.594 0.6570000000000003 0.6015 0.6570000000000003 0.606 0.6540000000000002 C 0.6 0.6480000000000002 0.5865 0.6480000000000002 0.5775 0.6465000000000003 M 0.1005 0.9360000000000002 C 0.1095 0.9045000000000002 0.3 0.7740000000000002 0.354 0.7620000000000002 C 0.354 0.7665000000000002 0.35100000000000003 0.7710000000000002 0.34950000000000003 0.7740000000000002 C 0.3225 0.8295000000000002 0.20400000000000001 0.9390000000000003 0.11850000000000001 0.9390000000000003 C 0.114 0.9390000000000003 0.1065 0.9375000000000002 0.1005 0.9360000000000002 M 0.5789787597656251 0.9780000000000002 C 0.6074787597656252 0.9735000000000003 0.6479787597656251 0.9435000000000002 0.6434787597656251 0.8940000000000002 C 0.6419787597656251 0.8745000000000003 0.6314787597656252 0.8580000000000002 0.6029787597656251 0.8580000000000002 L 0.5924787597656251 0.8580000000000002 C 0.5579787597656252 0.8580000000000002 0.5414787597656251 0.9030000000000002 0.5414787597656251 0.9270000000000003 C 0.5414787597656251 0.9375000000000002 0.5474787597656251 0.9540000000000002 0.5519787597656252 0.9615000000000002 C 0.5519787597656252 0.9720000000000002 0.5699787597656252 0.9735000000000003 0.5789787597656251 0.9780000000000002 M 0.9059641113281252 0.5655000000000002 C 1.067964111328125 0.4740000000000002 1.295964111328125 0.33150000000000024 1.3709641113281252 0.18300000000000016 C 1.3754641113281252 0.17850000000000021 1.3709641113281252 0.16200000000000025 1.3754641113281252 0.15300000000000025 L 1.376964111328125 0.1515000000000002 C 1.3754641113281252 0.14400000000000024 1.3754641113281252 0.14100000000000024 1.3754641113281252 0.13500000000000023 C 1.376964111328125 0.12600000000000022 1.3709641113281252 0.11100000000000021 1.366464111328125 0.10800000000000021 C 1.3349641113281252 0.18900000000000017 1.0649641113281252 0.4035000000000002 0.9119641113281252 0.47850000000000026 C 0.9329641113281252 0.39900000000000024 1.0244641113281252 0.20550000000000024 1.0289641113281252 0.09150000000000025 C 1.0304641113281252 0.06450000000000022 1.0199641113281253 0.018000000000000238 0.9839641113281251 0.018000000000000238 C 0.9674641113281252 0.018000000000000238 0.9224641113281251 0.018000000000000238 0.9209641113281252 0.02550000000000019 C 0.9254641113281251 0.02550000000000019 0.9329641113281252 0.028500000000000192 0.9344641113281251 0.03000000000000025 C 0.9359641113281252 0.036000000000000254 0.9404641113281251 0.03900000000000026 0.9404641113281251 0.04650000000000021 C 0.9359641113281252 0.07050000000000023 0.9209641113281252 0.10950000000000026 0.8774641113281252 0.2340000000000002 C 0.8234641113281251 0.39000000000000024 0.6599641113281252 0.8010000000000002 0.6539641113281252 0.9390000000000003 C 0.6524641113281251 0.9915000000000003 0.6734641113281251 1.0710000000000002 0.7424641113281252 1.0710000000000002 L 0.7529641113281251 1.0710000000000002 C 0.7604641113281252 1.0680000000000003 0.7649641113281251 1.0680000000000003 0.7709641113281251 1.0680000000000003 L 0.7769641113281252 1.0620000000000003 C 0.7739641113281251 1.0500000000000003 0.8039641113281252 1.0110000000000001 0.8084641113281251 0.9960000000000002 C 0.7919641113281252 1.0140000000000002 0.7799641113281252 1.0275000000000003 0.7589641113281251 1.0440000000000003 C 0.7529641113281251 1.0275000000000003 0.7544641113281252 1.0110000000000001 0.7544641113281252 0.9960000000000002 C 0.7589641113281251 0.9300000000000003 0.8234641113281251 0.7200000000000002 0.8519641113281251 0.6450000000000002 C 0.9194641113281251 0.8100000000000003 0.9884641113281252 0.9435000000000002 1.1759641113281252 1.0005000000000002 L 1.1759641113281252 0.9960000000000002 C 1.202964111328125 1.0050000000000003 1.2299641113281252 1.0110000000000001 1.2569641113281251 1.0110000000000001 C 1.2809641113281252 1.0065000000000002 1.3034641113281251 1.0110000000000001 1.3274641113281251 1.0050000000000003 C 1.3214641113281251 1.0050000000000003 1.3214641113281251 1.0050000000000003 1.3169641113281252 1.0005000000000002 C 1.319964111328125 1.0020000000000002 1.3229641113281252 1.0020000000000002 1.3259641113281253 1.0020000000000002 C 1.3334641113281251 1.0020000000000002 1.3394641113281252 0.9990000000000002 1.3469641113281252 0.9960000000000002 L 1.3394641113281252 0.9960000000000002 L 1.3484641113281253 0.9885000000000003 L 1.3574641113281252 0.9840000000000002 L 1.354464111328125 0.9795000000000003 C 1.364964111328125 0.9735000000000003 1.364964111328125 0.9735000000000003 1.364964111328125 0.9735000000000003 C 1.366464111328125 0.9735000000000003 1.366464111328125 0.9735000000000003 1.3754641113281252 0.9690000000000002 C 1.354464111328125 0.9735000000000003 1.3379641113281253 0.9735000000000003 1.3034641113281251 0.9735000000000003 C 1.213464111328125 0.9735000000000003 1.1054641113281252 0.8865000000000003 1.0514641113281251 0.8190000000000002 C 0.9944641113281252 0.7500000000000002 0.9449641113281251 0.6660000000000001 0.9059641113281252 0.5655000000000002" fill="#d56a34" fill-rule="nonzero"></path></g><g><path d=" M 0.13573639634929305 1.759349812230767 C 0.11099278243145316 1.6561335941734918 0.09119789129718127 1.5507964949232593 0.07564476254882477 1.4454593956730266 C 0.07352388135586707 1.4299062669246703 0.05867771300516314 1.4256645045387548 0.04595242584741692 1.4256645045387548 C 0.0395897822685438 1.4256645045387548 0.03393409908732326 1.4299062669246703 0.03393409908732326 1.4341480293105855 C 0.03393409908732326 1.4398037124918062 0.03393409908732326 1.4419245936847638 0.03393409908732326 1.4447524352753742 C 0.030399297099060422 1.4468733164683318 0.021208811929577038 1.4475802768659844 0.021208811929577038 1.4539429204448575 C 0.021208811929577038 1.458184682830773 0.02332969312253474 1.4610125244213832 0.02332969312253474 1.4638403660119934 C 0.02332969312253474 1.5034301482805372 0.022622732724882175 1.5338294453795975 0.021208811929577038 1.574126188045794 C 0.02050185153192447 1.6568405545711444 0.017674009941314198 1.7268296339387488 0.016260089146009064 1.8102509608617516 C 0.016260089146009064 1.816613604440625 0.01696704954366163 1.8236832084171506 0.01696704954366163 1.8307528123936763 C 0.01696704954366163 1.8413572183584648 0.03393409908732326 1.8477198619373378 0.04171066346150151 1.8477198619373378 C 0.05160810902863746 1.8477198619373378 0.05655683181220544 1.8385293767678546 0.05584987141455287 1.8307528123936763 C 0.0530220298239426 1.796818713306353 0.0551429110169003 1.760763733026072 0.0551429110169003 1.7261226735410962 L 0.05797075260751057 1.5486756137303015 C 0.07847260413943505 1.6356317426415674 0.08695612891126586 1.721173950757528 0.11169974282910573 1.7961117529087003 C 0.11452758441971601 1.8053022380781838 0.12230414879389426 1.808130079668794 0.13078767356572507 1.808130079668794 C 0.1562382478812175 1.808130079668794 0.1569452082788701 1.7939908717157427 0.1654287330507009 1.7678333370025976 C 0.18875842617323565 1.6893607328631626 0.21279507969342296 1.566349623671616 0.23188301043004228 1.5069649502688 C 0.22976212923708458 1.5571591385021324 0.21915772327229607 1.7586428518331143 0.21774380247699093 1.813078802452362 C 0.21774380247699093 1.8236832084171506 0.21703684207933838 1.8364084955748967 0.21774380247699093 1.8477198619373378 C 0.2184507628746435 1.854082505516211 0.22905516883943203 1.8597381886974316 0.23541781241830512 1.859031228299779 C 0.24460829758778851 1.8583242679021263 0.2608683867337976 1.8484268223349904 0.2580405451431873 1.8406502579608122 C 0.2566266243478822 1.837822416370202 0.25450574315492447 1.8364084955748967 0.25450574315492447 1.8335806539842865 C 0.25450574315492447 1.8286319312007184 0.25450574315492447 1.8243901688148032 0.25450574315492447 1.8208553668265404 C 0.2559196639502296 1.6957233764420356 0.26369622832440787 1.5628148216833528 0.26935191150562837 1.4376828312988486 C 0.270058871903281 1.4249575441411022 0.24248741639483082 1.413646177778661 0.23188301043004228 1.413646177778661 C 0.2255203668511692 1.413646177778661 0.2205716440676012 1.417180979766924 0.21774380247699093 1.4214227421528394 C 0.21774380247699093 1.4299062669246703 0.2142090004887281 1.4355619501058907 0.2120881192957704 1.443338514480069 C 0.18522362418497282 1.5437268909467337 0.1569452082788701 1.6858259308748997 0.13573639634929305 1.759349812230767 M 0.4368821948009137 1.6596683961617549 C 0.44465875917509196 1.5649357028763107 0.44253787798213423 1.5013092670875796 0.4227429868478624 1.4567707620354677 C 0.41991514525725204 1.4489941976612895 0.41567338287133665 1.443338514480069 0.41284554128072637 1.4419245936847638 C 0.40224113531593786 1.434854989708238 0.3937576105441071 1.4334410689129329 0.3838601649769711 1.4313201877199753 C 0.3803253629887083 1.4313201877199753 0.37820448179575056 1.4320271481176279 0.3753766402051403 1.4320271481176279 C 0.37325575901218255 1.4320271481176279 0.3711348778192249 1.4313201877199753 0.36760007583096205 1.4291993065270177 C 0.36477223424035177 1.4270784253340598 0.3619443926497415 1.4256645045387548 0.3591165510591312 1.4256645045387548 C 0.34639126390138497 1.4256645045387548 0.33720077873190163 1.449701158058942 0.33437293714129135 1.4617194848190358 C 0.3216476499835451 1.5140345542453257 0.3124571648140617 1.5635217820810055 0.30750844203049377 1.6165438119049482 C 0.30255971924692576 1.6731006437171536 0.29831795686101037 1.723294831950486 0.30538756083753604 1.7826795053533016 C 0.3068014816328412 1.7946978321133953 0.30750844203049377 1.8074231192711414 0.31316412521171433 1.8187344856335825 C 0.32094068958589256 1.834287614381939 0.3364938183342491 1.8484268223349904 0.3548747886732158 1.8484268223349904 C 0.4149664224736841 1.8484268223349904 0.4326404324149983 1.7013790596232563 0.4368821948009137 1.6596683961617549 M 0.35346086787791064 1.813078802452362 C 0.32235461038119767 1.7734890201838183 0.35558174907086837 1.485756138339223 0.3803253629887083 1.4525289996495523 C 0.4107246600877687 1.4801004551580026 0.40506897690654814 1.6158368515072956 0.40082721452063275 1.6547196733781868 C 0.39446457094175963 1.7027929804185615 0.3817392837840134 1.7664194162072926 0.3591165510591312 1.8102509608617516 C 0.3577026302638261 1.8123718420547095 0.356288709468521 1.8151996836453197 0.35558174907086837 1.8151996836453197 C 0.3548747886732158 1.8151996836453197 0.35416782827556326 1.814492723247667 0.35346086787791064 1.813078802452362 M 0.5436328696509448 1.7155182675763077 C 0.540098067662682 1.6610823169570599 0.5344423844814614 1.5684705048645735 0.530200622095546 1.5175693562335886 C 0.5280797409025882 1.4878770195321809 0.5294936616978934 1.4610125244213832 0.5266658201072831 1.4306132273223229 C 0.5259588597096305 1.417180979766924 0.5203031765284101 1.4108183361880509 0.5068709289730112 1.4108183361880509 C 0.4920247606223073 1.4122322569833559 0.4828342754528239 1.4185949005622291 0.4835412358504765 1.4334410689129329 C 0.48495515664578165 1.4454593956730266 0.4884899586340445 1.4546498808425101 0.4899038794293496 1.4666682076026036 C 0.494145641815265 1.5288807225960297 0.5005082853941382 1.6370456634368726 0.5082848497683163 1.7013790596232563 C 0.5096987705636216 1.7183461091669179 0.5160614141424946 1.8088370400664466 0.5132335725518844 1.8187344856335825 C 0.5111126913589267 1.8265110500077608 0.5111126913589267 1.8307528123936763 0.5146474933471895 1.8371154559725493 C 0.5217170973237152 1.8427711391537698 0.525251899311978 1.8477198619373378 0.5344423844814614 1.850547703527948 C 0.5365632656744191 1.8512546639256007 0.5393911072650294 1.8512546639256007 0.5415119884579871 1.8512546639256007 C 0.5535303152180807 1.8512546639256007 0.5620138399899115 1.8434780995514224 0.5634277607852167 1.8265110500077608 C 0.566255602375827 1.8116648816570569 0.5726182459547 1.7522802082542412 0.5768600083406155 1.7317783567223166 C 0.5909992162936668 1.6525987921852292 0.6178637114044644 1.4963605443040116 0.6390725233340414 1.4313201877199753 C 0.6419003649246517 1.4277853857317124 0.6419003649246517 1.4214227421528394 0.6355377213457786 1.4200088213575341 C 0.6291750777669055 1.413646177778661 0.623519394585685 1.4108183361880509 0.618570671802117 1.4108183361880509 C 0.6100871470302862 1.4108183361880509 0.603724503451413 1.4193018609598815 0.6008966618608028 1.4306132273223229 C 0.5980688202701925 1.4341480293105855 0.5980688202701925 1.436975870901196 0.5987757806678451 1.4405106728894588 C 0.5931200974866245 1.453235960047205 0.592413137088972 1.4652542868072986 0.5888783351007092 1.4772726135673921 C 0.5704973647617424 1.549382574127954 0.5556511964110384 1.646236148606356 0.5436328696509448 1.7155182675763077 M 0.701288490282534 1.4242505837434496 C 0.6885632031247878 1.4242505837434496 0.6814935991482621 1.428492346129365 0.6786657575576519 1.4419245936847638 C 0.6772518367623468 1.4553568412401625 0.6772518367623468 1.4666682076026036 0.6772518367623468 1.4801004551580026 C 0.6758379159670416 1.587558435601193 0.6701822327858211 1.7027929804185615 0.6624056684116428 1.8116648816570569 C 0.6624056684116428 1.8137857628500145 0.6616987080139902 1.816613604440625 0.6631126288092954 1.81802752523593 C 0.6616987080139902 1.8265110500077608 0.6673543911952108 1.8420641787561174 0.6758379159670416 1.8434780995514224 C 0.680079678352957 1.844185059949075 0.6829075199435672 1.844185059949075 0.6857353615341776 1.844185059949075 C 0.6942188863060084 1.844185059949075 0.6956328071013135 1.8406502579608122 0.6970467278966187 1.8307528123936763 C 0.7090650546567123 1.7049138616115191 0.7090650546567123 1.5599869800927426 0.7168416190308906 1.4412176332871112 C 0.7182555398261957 1.428492346129365 0.7090650546567123 1.4299062669246703 0.701288490282534 1.4242505837434496 M 0.7946203802019264 1.4475802768659844 C 0.7769463702606122 1.4574777224331203 0.7783602910559173 1.4574777224331203 0.7762394098629596 1.4758586927720871 C 0.7698767662840865 1.5444338513443863 0.7621002019099082 1.6144229307119904 0.7571514791263403 1.6829980892842895 C 0.7536166771380775 1.7268296339387488 0.7522027563427723 1.772075099388513 0.7522027563427723 1.816613604440625 C 0.7522027563427723 1.8265110500077608 0.7550305979333826 1.8427711391537698 0.7684628454887814 1.8427711391537698 C 0.8045178257690624 1.8420641787561174 0.8285544792892496 1.8222692876218454 0.8582468159906576 1.81802752523593 C 0.8667303407624883 1.8173205648382775 0.8723860239437089 1.814492723247667 0.8723860239437089 1.8060091984758364 C 0.8723860239437089 1.791869990522785 0.8561259347976998 1.7876282281368696 0.8441076080376061 1.7876282281368696 C 0.827847518891597 1.7876282281368696 0.8087595881549777 1.7982326341016581 0.7917925386113162 1.803181356885226 C 0.7910855782136635 1.7536941290495462 0.7924994990089687 1.7098625843950872 0.7988621425878418 1.6617892773547125 C 0.8002760633831469 1.6518918317875766 0.7981551821901892 1.6419943862204405 0.80663870696202 1.6398735050274829 C 0.8200709545174188 1.63633870303922 0.8412797664469959 1.6356317426415674 0.8547120140023947 1.6342178218462624 C 0.85895377638831 1.6335108614486098 0.8646094595695306 1.6306830198579996 0.8688512219554461 1.6306830198579996 C 0.8745069051366665 1.6285621386650417 0.8794556279202346 1.6207855742908635 0.8794556279202346 1.615129891109643 C 0.8794556279202346 1.6073533267354647 0.873799944739014 1.605232445542507 0.8653164199671832 1.605232445542507 L 0.8052247861667149 1.6031115643495493 C 0.8087595881549777 1.5734192276481416 0.8101735089502828 1.5211041582218514 0.816536152529156 1.4878770195321809 C 0.8179500733244611 1.4815143759533076 0.8207779149150713 1.4765656531697395 0.8207779149150713 1.470909969988519 C 0.8207779149150713 1.4659612472049512 0.8151222317338509 1.4610125244213832 0.8122943901432406 1.458184682830773 L 0.8730929843413614 1.4546498808425101 C 0.8808695487155397 1.4546498808425101 0.8865252318967602 1.4511150788542473 0.8858182714991076 1.4426315540824164 C 0.8844043507038025 1.422129702550492 0.8617816179789204 1.4178879401645765 0.8405728060493433 1.4178879401645765 C 0.827847518891597 1.4178879401645765 0.8158291921315034 1.4193018609598815 0.8080526277573252 1.4200088213575341 C 0.7995691029854943 1.4207157817551868 0.7960343009972315 1.4249575441411022 0.7932064594066213 1.4320271481176279 M 1.0159145184649803 1.4560638016378151 C 1.0173284392602853 1.474444771976782 0.9734968946058261 1.5925071583847608 0.9635994490386901 1.6221994950861687 C 0.9487532806879863 1.66391015854767 0.9268375083607566 1.7282435547340538 0.9155261419983155 1.7692472577979028 C 0.9098704588170949 1.7840934261486068 0.904921736033527 1.786921267739217 0.9056286964311796 1.8024743964875736 C 0.9063356568288321 1.8088370400664466 0.9091634984194424 1.813078802452362 0.9126983004077053 1.8173205648382775 C 0.9339071123372823 1.8399432975631596 0.9537020034715542 1.8427711391537698 0.977031696594089 1.8427711391537698 C 0.9841013005706146 1.8427711391537698 0.9925848253424454 1.8427711391537698 1.0010683501142763 1.8427711391537698 C 1.014500597669675 1.8427711391537698 1.0406581323828201 1.8427711391537698 1.0385372511898623 1.8236832084171506 C 1.03783029079221 1.8109579212594042 1.022984122441506 1.8045952776805312 1.0130866768743698 1.8045952776805312 C 1.0046031521025391 1.8045952776805312 0.9975335481260135 1.8095440004640992 0.9883430629565301 1.8095440004640992 C 0.9862221817635723 1.8088370400664466 0.9841013005706146 1.8088370400664466 0.9826873797753095 1.8088370400664466 C 0.9742038550034787 1.8088370400664466 0.9671342510269529 1.8102509608617516 0.9593576866527748 1.8102509608617516 C 0.9522880826762491 1.8102509608617516 0.9459254390973759 1.8074231192711414 0.9466323994950285 1.8003535152946157 C 0.9494602410856388 1.7741959805814709 0.9713760134128684 1.708448663599782 0.9841013005706146 1.6702728021265432 C 1.003189231307234 1.6123020495190328 1.024398043236811 1.5550382573091748 1.0434859739734303 1.4977744650993168 C 1.0484346967569984 1.4843422175439178 1.0526764591429136 1.4723238907838243 1.0632808651077021 1.4610125244213832 C 1.0675226274936176 1.458184682830773 1.0703504690842278 1.4525289996495523 1.0696435086865754 1.4475802768659844 C 1.0675226274936176 1.4228366629481446 1.0406581323828201 1.4193018609598815 1.0180353996579379 1.4193018609598815 C 1.0102588352837596 1.4193018609598815 1.003189231307234 1.4200088213575341 0.9975335481260135 1.4200088213575341 C 0.9883430629565301 1.4200088213575341 0.9367349539278926 1.4207157817551868 0.9374419143255451 1.4313201877199753 C 0.9388558351208502 1.4426315540824164 0.9544089638692068 1.4610125244213832 0.9671342510269529 1.4610125244213832 C 0.9777386569917416 1.4610125244213832 0.9890500233541826 1.4546498808425101 1.0010683501142763 1.4546498808425101 C 1.0060170728978441 1.4546498808425101 1.0109657956814122 1.4546498808425101 1.0159145184649803 1.4560638016378151 M 1.1269276674313267 1.8095440004640992 C 1.129755509021937 1.8053022380781838 1.1318763902148947 1.7989395944993107 1.1318763902148947 1.7939908717157427 C 1.1651035289045655 1.7261226735410962 1.2054002715707617 1.6356317426415674 1.2372134894651272 1.557866098899785 C 1.2435761330440005 1.5444338513443863 1.2506457370205262 1.5310016037889875 1.2570083805993992 1.516862395835936 C 1.2612501429853147 1.5048440690758424 1.2647849449735775 1.4914118215204435 1.270440628154798 1.4808074155556552 C 1.2739754301430608 1.474444771976782 1.275389350938366 1.4694960491932139 1.2746823905407134 1.4610125244213832 C 1.2739754301430608 1.4376828312988486 1.2513526974181788 1.415767058971619 1.228023004295644 1.415767058971619 C 1.1976237071965836 1.415767058971619 1.170759212085786 1.4242505837434496 1.1417738357820306 1.4256645045387548 C 1.141066875384378 1.4256645045387548 1.1403599149867256 1.4256645045387548 1.139652954589073 1.4256645045387548 C 1.1382390337937678 1.4256645045387548 1.1368251129984628 1.4256645045387548 1.1368251129984628 1.428492346129365 C 1.1332903110102 1.428492346129365 1.1311694298172421 1.4306132273223229 1.1311694298172421 1.4334410689129329 C 1.1311694298172421 1.4475802768659844 1.1431877565773358 1.458184682830773 1.155913043735082 1.458184682830773 C 1.1813636180505744 1.458184682830773 1.206814192366067 1.4489941976612895 1.2322647666815594 1.4489941976612895 C 1.2350926082721696 1.4489941976612895 1.2372134894651272 1.4511150788542473 1.2372134894651272 1.4546498808425101 C 1.2372134894651272 1.458184682830773 1.234385647874517 1.4610125244213832 1.2357995686698222 1.4652542868072986 C 1.206814192366067 1.5394851285608182 1.1990376279918886 1.557866098899785 1.170759212085786 1.6200786138932108 C 1.154499122939777 1.6540127129805342 1.1071327762970549 1.750866287458936 1.0937005287416561 1.7855073469439118 C 1.0908726871510457 1.7925769509204375 1.0894587663557407 1.7996465548969631 1.0894587663557407 1.8067161588734888 C 1.0901657267533933 1.837822416370202 1.1311694298172421 1.849133782732643 1.1552060833374294 1.849133782732643 C 1.1778288160623116 1.849133782732643 1.198330667594236 1.8455989807443802 1.2202464399214656 1.8434780995514224 C 1.2259021231026863 1.837822416370202 1.2400413310557377 1.8385293767678546 1.2400413310557377 1.8258040896101082 C 1.2400413310557377 1.8215623272241928 1.2350926082721696 1.8088370400664466 1.2308508458862542 1.8088370400664466 C 1.2025724299801515 1.8088370400664466 1.1735870536763962 1.814492723247667 1.1453086377702935 1.814492723247667 C 1.1389459941914204 1.814492723247667 1.1325833506125473 1.8123718420547095 1.1269276674313267 1.8095440004640992 M 1.350321284765925 1.8116648816570569 C 1.350321284765925 1.801767436089921 1.341837759994094 1.7890421489321746 1.3305263936316531 1.7890421489321746 C 1.3185080668715594 1.7890421489321746 1.3050758193161607 1.8116648816570569 1.3050758193161607 1.8236832084171506 C 1.3050758193161607 1.8349945747795917 1.3100245420997285 1.8385293767678546 1.3199219876668644 1.8434780995514224 C 1.3284055124386953 1.8434780995514224 1.3432516807893993 1.8243901688148032 1.3474934431753147 1.8194414460312351 C 1.3474934431753147 1.81802752523593 1.350321284765925 1.813078802452362 1.350321284765925 1.8116648816570569 M 1.4210363102840484 1.8116648816570569 C 1.4210363102840484 1.801767436089921 1.4125527855122175 1.7890421489321746 1.4012414191497766 1.7890421489321746 C 1.389223092389683 1.7890421489321746 1.3757908448342842 1.8116648816570569 1.3757908448342842 1.8236832084171506 C 1.3757908448342842 1.8349945747795917 1.380739567617852 1.8385293767678546 1.390637013184988 1.8434780995514224 C 1.3991205379568188 1.8434780995514224 1.4139667063075227 1.8243901688148032 1.4182084686934382 1.8194414460312351 C 1.4182084686934382 1.81802752523593 1.4210363102840484 1.813078802452362 1.4210363102840484 1.8116648816570569 M 1.491751335802172 1.8116648816570569 C 1.491751335802172 1.801767436089921 1.483267811030341 1.7890421489321746 1.4719564446679 1.7890421489321746 C 1.4599381179078064 1.7890421489321746 1.4465058703524076 1.8116648816570569 1.4465058703524076 1.8236832084171506 C 1.4465058703524076 1.8349945747795917 1.4514545931359755 1.8385293767678546 1.4613520387031114 1.8434780995514224 C 1.4698355634749423 1.8434780995514224 1.4846817318256462 1.8243901688148032 1.4889234942115617 1.8194414460312351 C 1.4889234942115617 1.81802752523593 1.491751335802172 1.813078802452362 1.491751335802172 1.8116648816570569 M 1.6578856484684987 1.5967489207706762 C 1.6578856484684987 1.5543312969115222 1.665662212842677 1.5097927918594103 1.6691970148309396 1.4673751680002562 C 1.6699039752285922 1.4617194848190358 1.6713178960238975 1.459598603626078 1.6762666188074653 1.4560638016378151 C 1.6790944603980757 1.4567707620354677 1.6840431831816436 1.4567707620354677 1.688284945567559 1.4567707620354677 C 1.6918197475558219 1.4567707620354677 1.694647589146432 1.4567707620354677 1.6974754307370425 1.4553568412401625 C 1.7003032723276528 1.4553568412401625 1.703131113918263 1.4560638016378151 1.7073728763041784 1.4560638016378151 C 1.72433992584784 1.4560638016378151 1.750497460560985 1.4525289996495523 1.7512044209586377 1.4376828312988486 C 1.75191138135629 1.4249575441411022 1.7476696189703749 1.417180979766924 1.7370652130055864 1.417180979766924 C 1.7363582526079337 1.417180979766924 1.7349443318126285 1.417180979766924 1.734237371414976 1.417180979766924 C 1.7264608070407976 1.4178879401645765 1.7186842426666196 1.4185949005622291 1.7109076782924413 1.4185949005622291 C 1.6911127871581693 1.4185949005622291 1.67202485642155 1.4164740193692713 1.652229965287278 1.413646177778661 C 1.640918598924837 1.413646177778661 1.6331420345506589 1.417180979766924 1.6324350741530063 1.4299062669246703 C 1.6317281137553536 1.4419245936847638 1.6303141929600484 1.4539429204448575 1.6289002721647434 1.4659612472049512 C 1.6253654701764806 1.5147415146429783 1.6204167473929125 1.5628148216833528 1.616174985006997 1.6108881287237276 C 1.6112262622234292 1.6646171189453227 1.6076914602351664 1.7112765051903922 1.6069844998375138 1.7650054954119874 C 1.6062775394398612 1.780558624160344 1.597087054270378 1.8434780995514224 1.6260724305741332 1.8519616243232533 C 1.6338489949483113 1.8519616243232533 1.6479882029013626 1.8512546639256007 1.6479882029013626 1.8399432975631596 C 1.6486951632990152 1.837822416370202 1.6494021236966678 1.8364084955748967 1.6501090840943204 1.8349945747795917 C 1.6501090840943204 1.8236832084171506 1.6451603613107524 1.8102509608617516 1.6451603613107524 1.7982326341016581 C 1.6465742821060576 1.7466245250730206 1.6479882029013626 1.693602495249078 1.6536438860825833 1.6384595842321776 C 1.6706109356262449 1.6264412574720841 1.7349443318126285 1.6285621386650417 1.7356512922102811 1.6059394059401595 C 1.7363582526079337 1.5946280395777186 1.7299956090290607 1.5953349999753712 1.7200981634619246 1.5946280395777186 C 1.7024241535206104 1.5953349999753712 1.6854571039769488 1.5967489207706762 1.667076133637982 1.5967489207706762 C 1.6642482920473718 1.5967489207706762 1.660713490059109 1.5967489207706762 1.6578856484684987 1.5967489207706762 M 1.8162509910617939 1.7996465548969631 C 1.8162509910617939 1.682291128886637 1.8275623574242348 1.5543312969115222 1.838873723786676 1.4504081184565947 C 1.8395806841843285 1.4412176332871112 1.8318041198101502 1.4306132273223229 1.8219066742430143 1.4306132273223229 C 1.807767466289963 1.4306132273223229 1.799283941518132 1.4306132273223229 1.799283941518132 1.4475802768659844 C 1.799283941518132 1.4666682076026036 1.7985769811204797 1.4850491779415704 1.7971630603251745 1.5027231878828846 C 1.791507377143954 1.5953349999753712 1.7830238523721231 1.6893607328631626 1.7830238523721231 1.7812655845579966 C 1.7830238523721231 1.7939908717157427 1.7752472879979448 1.814492723247667 1.77666120879325 1.8215623272241928 C 1.7830238523721231 1.8335806539842865 1.791507377143954 1.8413572183584648 1.8063535454946578 1.8413572183584648 C 1.8084744266876156 1.8413572183584648 1.8113022682782258 1.8413572183584648 1.812716189073531 1.8406502579608122 C 1.8318041198101502 1.8349945747795917 1.8982583971894917 1.8236832084171506 1.8982583971894917 1.7982326341016581 C 1.8982583971894917 1.7925769509204375 1.8940166348035763 1.7862143073415644 1.8890679120200082 1.786921267739217 C 1.8728078228739993 1.7911630301251324 1.8409946049796337 1.7996465548969631 1.8162509910617939 1.7996465548969631 M 1.9739121348214899 1.4242505837434496 C 1.9611868476637435 1.4242505837434496 1.9541172436872178 1.428492346129365 1.9512894020966076 1.4419245936847638 C 1.9498754813013024 1.4553568412401625 1.9498754813013024 1.4666682076026036 1.9498754813013024 1.4801004551580026 C 1.9484615605059974 1.587558435601193 1.9428058773247767 1.7027929804185615 1.9350293129505984 1.8116648816570569 C 1.9350293129505984 1.8137857628500145 1.934322352552946 1.816613604440625 1.935736273348251 1.81802752523593 C 1.934322352552946 1.8265110500077608 1.9399780357341665 1.8420641787561174 1.9484615605059974 1.8434780995514224 C 1.9527033228919128 1.844185059949075 1.955531164482523 1.844185059949075 1.9583590060731333 1.844185059949075 C 1.9668425308449642 1.844185059949075 1.9682564516402692 1.8406502579608122 1.9696703724355744 1.8307528123936763 C 1.981688699195668 1.7049138616115191 1.981688699195668 1.5599869800927426 1.9894652635698462 1.4412176332871112 C 1.9908791843651514 1.428492346129365 1.981688699195668 1.4299062669246703 1.9739121348214899 1.4242505837434496 M 2.0990572426352476 1.6992581784302985 C 2.106833807009426 1.7423827626871051 2.136526143710834 1.8307528123936763 2.1598558368333687 1.829338891598371 C 2.164097599219284 1.829338891598371 2.1676324012075465 1.8194414460312351 2.1676324012075465 1.814492723247667 C 2.1676324012075465 1.8102509608617516 2.1669254408098944 1.8053022380781838 2.1633906388216313 1.801767436089921 C 2.1464235892779695 1.7544010894471989 2.128042618939003 1.6709797625241958 2.123093896155435 1.6356317426415674 C 2.129456539734308 1.6137159703143378 2.161976718026326 1.530294643391335 2.171874163593462 1.5069649502688 C 2.181771609160598 1.4843422175439178 2.191669054727734 1.4610125244213832 2.207929143873743 1.4426315540824164 C 2.2107569854643536 1.4412176332871112 2.2121709062596584 1.4362689105035433 2.2121709062596584 1.4334410689129329 C 2.211463945862006 1.4306132273223229 2.2107569854643536 1.4291993065270177 2.210050025066701 1.4263714649364072 C 2.20439434188548 1.4214227421528394 2.198031698306607 1.417180979766924 2.1909620943300814 1.417180979766924 C 2.1838924903535557 1.4178879401645765 2.1732880843887674 1.4256645045387548 2.1690463220028517 1.4313201877199753 C 2.1435957476873595 1.4765656531697395 2.119559094167172 1.5522104157185646 2.1075407674070785 1.5833166732152775 C 2.1011781238282055 1.5472616929349965 2.09693636144229 1.5147415146429783 2.0912806782610693 1.4843422175439178 C 2.0891597970681115 1.4716169303861717 2.0884528366704593 1.4588916432284256 2.0863319554775015 1.4468733164683318 C 2.0849180346821963 1.438389791696501 2.0757275495127128 1.428492346129365 2.0665370643432297 1.4291993065270177 C 2.0545187375831357 1.4299062669246703 2.04744913360661 1.4362689105035433 2.0488630544019153 1.4482872372636368 C 2.04744913360661 1.4489941976612895 2.04744913360661 1.4504081184565947 2.04744913360661 1.4518220392519 C 2.04744913360661 1.4546498808425101 2.0481560940042627 1.4574777224331203 2.0488630544019153 1.4603055640237306 C 2.060881381162009 1.516862395835936 2.0693649059338397 1.5755401088410992 2.083504113886891 1.6328039010509572 C 2.0799693118986284 1.642701346618093 2.039672569232432 1.7565219706401565 2.0403795296300844 1.7621776538213771 C 2.036137767244169 1.772075099388513 2.0184637573028548 1.834287614381939 2.0184637573028548 1.837822416370202 C 2.0191707177005074 1.8470129015396852 2.0340168860512113 1.8576173075044737 2.041086490027737 1.8569103471068211 C 2.0516908959925257 1.8562033867091687 2.0523978563901784 1.8406502579608122 2.0531048167878305 1.8371154559725493 C 2.067244024740882 1.79328391131809 2.0877458762728067 1.7310713963246642 2.0990572426352476 1.6992581784302985" fill="#d56a34" fill-rule="nonzero"></path></g><g clip-path="url(&quot;#SvgjsClipPath1001&quot;)"><g clip-path="url(&quot;#b&quot;)"><path d=" M -0.8633057646036932 -0.045006274294358106 C -1.2804030956216574 0.2264837124301129 -1.6972739819843903 0.49835796887255257 -2.1151329904790424 0.769058830283338" fill="#ffffff" transform="matrix(1,0,0,1,0,0)" fill-rule="nonzero"></path></g><g clip-path="url(&quot;#b&quot;)"><path d=" M -0.8633057646036932 -0.045006274294358106 L -0.8626127067195 -0.045006274294358106 C -0.8243092501891254 0.019108441952785035 -0.7845441963386204 0.08176156087979744 -0.7466181475669653 0.14625368488565976 C -1.1211919171161493 0.37785167151351107 -1.4961362324648033 0.6092986950378747 -1.8700135131501694 0.8415588607332968 C -1.4459066907589022 0.7464177957398105 -1.0391194535132215 0.6549718958021475 -0.6147999103852215 0.5600469825250185 C -0.6016695513614183 0.6069656288930649 -0.6164159017884647 0.5584104052440271 -0.6022288010402477 0.6081424549043438 C -0.6004172437983955 0.6145034911285748 -0.5931538599328632 0.6474752053221342 -0.5934043214454676 0.6522648528782433 C -0.5907521741955593 0.6628013913057585 -0.5878495654330458 0.6757190295928295 -0.5841921411530944 0.6912236265169392 C -0.5834784973911527 0.7014102050227329 -0.5731752655781184 0.7421153472904113 -0.5691644503968207 0.7607730144896389 C -0.4971687739516957 1.075925647918297 -0.4655866065061478 1.2333081142838291 -0.3999999999999999 1.5635913678575024 L -0.3999999999999999 1.5819917115848758 C -0.9000069536493236 1.6906028025850133 -1.332382436936166 1.7793862623338934 -1.8363830508686636 1.8891913342434332 C -1.8370726777732327 1.8891913342434332 -1.8399066669432511 1.8793547156593609 -1.84059629384782 1.8793547156593609 C -1.9039939353533966 1.567142431769088 -1.9392678368751433 1.3996454374698808 -2.00327619275392 1.0880575918713067 C -2.0156139954844132 1.0817514513210713 -2.0286277012009766 1.0761246447365305 -2.041943333124515 1.0707963333793402 C -2.0420737103502544 1.070237083700511 -2.0426329600290836 1.0701067064747716 -2.0426329600290836 1.069417079570203 C -2.054102724914523 1.0293363755942235 -2.0670306561404677 0.9830593224159997 -2.0792277887063473 0.9402955923734893 C -2.080998174192703 0.9340820882731214 -2.0853212085198503 0.9247772715308805 -2.084062038997578 0.920962022188192 C -2.080679093087604 0.9107342719269016 -2.0762394054532165 0.8976862564140914 -2.0716315998172172 0.8878221899930213 L -2.0716315998172172 0.8864395052042591 C -2.0861171957927853 0.84776207189479 -2.1003386063372496 0.8088135911949685 -2.1151329904790424 0.7704415150720997 L -2.1151329904790424 0.7690588302833375 C -1.6972739819843903 0.49835796887255257 -1.2804030956216574 0.2264837124301129 -0.8633057646036932 -0.045006274294358106 M -0.9447812377519198 0.09654222110309132 C -0.9594623995660969 0.09198931114108785 -0.9738004634178017 0.0854704498541198 -0.9882826284137449 0.0827290971339685 C -0.9897716735708735 0.08244775680474145 -0.9903515091274513 0.0836863404492654 -0.9910445670116448 0.08411178192273067 C -1.034580267469717 0.11090430181216934 -1.0830805954447593 0.1371101241857809 -1.1270657542336702 0.16489762816638842 C -1.0778860922929332 0.18210742196398408 -1.0275982239334118 0.1983531104870334 -0.9779245009267152 0.21599177673771902 C -0.9710865585346482 0.21841747933239608 -0.9615141253816795 0.22397909730406723 -0.9565220500277118 0.22358796562684918 C -0.952597009337032 0.22327917746062437 -0.9439886814586094 0.21655445739617313 -0.9385677336515519 0.21322983813981938 C -0.896778401822462 0.1876175752412844 -0.8547386084807675 0.16255083810307988 -0.8149735546302623 0.13727824218739215 C -0.8575897525489098 0.12367097699575255 -0.9018905614632946 0.1098372671488814 -0.9447812377519198 0.0965422211030913 M -1.4225863222496802 0.3609918376376368 C -1.3656800941940739 0.3765822090523646 -1.3089591390382025 0.392361284346452 -1.2520426180437219 0.40794136282230564 C -1.1977096247066554 0.37504513018049007 -1.1419836536419528 0.3435418752663108 -1.089091671747269 0.3092046311821128 C -1.1544861433944327 0.29542581700923715 -1.218758684704313 0.2805250724990781 -1.283803196429755 0.266396298404481 C -1.3300665256894801 0.297927001155658 -1.376525420787814 0.3292621380682261 -1.4225863222496802 0.3609918376376368 M -1.7036110013512482 0.5481106044106177 C -1.646739083091889 0.5637387166012173 -1.5899460773638987 0.5794423103435609 -1.5330638661656653 0.5950601295952864 C -1.4896551119537076 0.5645278419149029 -1.4426301052172947 0.5327089368752493 -1.3991115596573458 0.5025369020554614 C -1.396476567305561 0.5007081899154857 -1.3919579671398048 0.4976649109883591 -1.3928980555569779 0.4963233979550934 C -1.4496018558147257 0.481450101281932 -1.5075922734317437 0.46785999098841613 -1.5648244445516983 0.45351506517746165 C -1.6111563934039177 0.48497714833614425 -1.657594702624503 0.5163294401468358 -1.703611001351248 0.5481106044106174 M -0.8391413751067902 0.6295860775588439 C -0.8644448498391004 0.6829686895398628 -0.8939649985301914 0.737720262391145 -0.9185445365616858 0.790464712161966 C -0.92002328877994 0.7936349373352073 -0.9224592843134913 0.797179139287543 -0.921996102064154 0.8008228396489956 C -0.8681228599968003 0.7893324888858084 -0.8133507012677696 0.7787376238046728 -0.7597347826722698 0.7669899495696315 C -0.7294495255248663 0.7111953589124345 -0.698251627797287 0.6526319676980883 -0.6706631206349132 0.5964428143840484 C -0.7262278356572542 0.6080806972710988 -0.7829179119965031 0.6186035117801152 -0.8391413751067902 0.6295860775588439 M -1.8617276973564707 0.6406304009708176 C -1.9077234102054672 0.6721988444978666 -1.9546077467772665 0.7028786643021131 -1.999821196271827 0.7352259402039735 C -1.9510052181713105 0.7477764636711993 -1.9004840431973082 0.7625262450778707 -1.8520626277536345 0.7759653922678991 C -1.8449056042564684 0.777951929470612 -1.8346984398729265 0.7819833305296581 -1.8299671189704374 0.7814892694636983 C -1.8257435830524071 0.7810466730921095 -1.8173891476662138 0.7735465516324715 -1.812016233573902 0.7697518881675313 C -1.7725565369099974 0.7418614547981821 -1.7338036220487845 0.7154943763822087 -1.6953251855575495 0.6889660419238735 C -1.6929029139424971 0.6872951548466347 -1.6877667374442913 0.6843582362878745 -1.6891116814571814 0.6827525378235055 C -1.7467590011117273 0.6688227605471422 -1.8034319225528528 0.6539151540777336 -1.8617276973564707 0.6406304009708178 M -1.1767806489958632 0.7138200583253453 C -1.205998871479979 0.7649279308151747 -1.233731479786591 0.8175214174825082 -1.262397314551127 0.8691782467122927 C -1.2076011389647234 0.8579246335432112 -1.153058855870549 0.8464102659226506 -1.0980671144455365 0.8353453566329286 C -1.0697066368676007 0.7878846154841765 -1.0410099232864425 0.737181598590064 -1.0131400757948417 0.6896556688284422 C -1.011530946350848 0.6869143161082909 -1.0083229804017348 0.6841626704492654 -1.00899545240818 0.6806802261301745 C -1.0646390799618894 0.6920127518306247 -1.1212673986678934 0.7023571553991557 -1.1767806489958632 0.7138200583253453 M -1.3431831607947848 0.7614626413942076 C -1.3407368723223594 0.757290570170548 -1.3346811932847285 0.7513412515012834 -1.3431831607947848 0.7531802565801333 C -1.3943116191623623 0.7642314419513566 -1.452895596254457 0.7738793566560692 -1.5075167918799997 0.7849408349661667 C -1.535012662592506 0.8373078769782686 -1.564399003078233 0.8877844492171495 -1.5917542036261259 0.9402955923734896 C -1.5368036339566098 0.929652693577608 -1.4833867121793438 0.9174761468894767 -1.4281136304251043 0.9071557601783188 C -1.4012113191876745 0.8613659061068053 -1.3708437185292772 0.808628318295234 -1.3431831607947848 0.7614626413942076 M -2.0129412623567564 0.7849408349661667 C -2.029770217416008 0.8067550034201366 -2.004734359094426 0.833098064978737 -1.9825599377798606 0.8242976022413302 C -1.9578465915430023 0.8144918624738804 -1.9660912355812044 0.7702287943353673 -1.9984419424626896 0.7766550191724679 C -2.0060415623314443 0.7781646502073447 -2.0099117073481287 0.781015794275487 -2.0129412623567564 0.7849408349661667 M -1.8244432417746381 0.8574408654161255 C -1.845722177407152 0.8961594704810912 -1.8677868073737263 0.9359245243315962 -1.8886574564308982 0.9741319134324785 C -1.8960031838074238 0.9875813535613812 -1.9038669891072821 1.0004715440114542 -1.9086806535207643 1.0134852497280171 C -1.8549172028014014 1.001655231981983 -1.8001004413372497 0.9908785249807371 -1.7457297072243116 0.9796557906282778 C -1.7172148355632633 0.9323288576848898 -1.6887823074132084 0.8814062580947951 -1.6608026685736168 0.8339626718441665 C -1.6591798152111241 0.8312178881443906 -1.6557454046067794 0.8286103436296034 -1.656658045186955 0.8249872291458988 C -1.712500669558898 0.8358908823932594 -1.76786981874263 0.8472680108288307 -1.8244432417746383 0.8574408654161255 M -1.9583955482829578 0.9126796373741181 C -1.9580558813001105 0.9404225386196042 -1.9184212046753446 0.9454523547494439 -1.9093702804253334 0.9223447069769544 C -1.9009335015281468 0.9007981549337128 -1.9198793710158508 0.8852661101726051 -1.9369896664043296 0.8878221899930215 C -1.951115009519302 0.8899288114825996 -1.9585602353049443 0.899079234141728 -1.9583955482829578 0.9126796373741181" fill="#d56a34" transform="matrix(1,0,0,1,0,0)" fill-rule="nonzero"></path></g><g clip-path="url(&quot;#b&quot;)"><path d=" M -0.8149735546302623 0.13727824218739215 C -0.8547386084807675 0.16255426908270462 -0.896778401822462 0.1876175752412844 -0.9385677336515519 0.21322983813981938 C -0.9439886814586096 0.21655445739617313 -0.952597009337032 0.22327917746062437 -0.9565220500277118 0.22358796562684913 C -0.9615141253816795 0.22397909730406723 -0.9710865585346482 0.21841747933239603 -0.9779245009267152 0.21599177673771902 C -1.0275982239334118 0.19835311048703336 -1.0778860922929334 0.18210742196398405 -1.1270657542336702 0.16489762816638837 C -1.0830805954447593 0.13711012418578086 -1.034580267469717 0.11090430181216931 -0.9910445670116448 0.08411178192273061 C -0.9903515091274513 0.08368634044926535 -0.9897716735708735 0.0824477568047414 -0.9882826284137451 0.08273252811359316 C -0.9738038943974265 0.08547044985411975 -0.9594623995660969 0.0919893111410878 -0.9447812377519198 0.0965422211030913 C -0.9018905614632948 0.10983726714888137 -0.8575897525489098 0.12367097699575252 -0.8149735546302623 0.13727824218739215" fill="#ffffff" transform="matrix(1,0,0,1,0,0)" fill-rule="nonzero"></path></g><g clip-path="url(&quot;#b&quot;)"><path d=" M -1.2838066274093798 0.2663962984044809 C -1.2187621156839377 0.280525072499078 -1.154489574374057 0.29542581700923704 -1.0890951027268936 0.30920463118211267 C -1.1419870846215776 0.3435418752663107 -1.1977130556862803 0.37504513018048996 -1.2520460490233467 0.40794136282230553 C -1.308962570017827 0.39236128434645196 -1.3656835251736985 0.37658220905236456 -1.422589753229305 0.3609918376376367 C -1.376525420787814 0.3292621380682259 -1.3300699566691048 0.2979235701760332 -1.2838066274093798 0.2663962984044809" fill="#ffffff" transform="matrix(1,0,0,1,0,0)" fill-rule="nonzero"></path></g><g clip-path="url(&quot;#b&quot;)"><path d=" M -1.5648278755313232 0.4535150651774619 C -1.5075957044113681 0.467863421968041 -1.4496052867943505 0.48145010128193233 -1.3928980555569779 0.49632682893471836 C -1.3919613981194292 0.4976649109883592 -1.3964765673055606 0.5007116208951106 -1.3991149906369706 0.5025403330350864 C -1.4426335361969194 0.5327089368752495 -1.4896551119537071 0.5645312728945278 -1.5330672971452897 0.5950635605749113 C -1.5899460773638983 0.579442310343561 -1.6467425140715137 0.5637387166012174 -1.7036110013512482 0.5481106044106177 C -1.6575981336041279 0.5163328711264609 -1.6111598243835423 0.48497714833614447 -1.5648278755313232 0.4535150651774619" fill="#ffffff" transform="matrix(1,0,0,1,0,0)" fill-rule="nonzero"></path></g><g clip-path="url(&quot;#b&quot;)"><path d=" M -0.6706665516145383 0.5964428143840488 C -0.6982550587769119 0.6526319676980887 -0.7294529565044912 0.7111953589124348 -0.7597382136518946 0.7669899495696318 C -0.8133541322473947 0.7787376238046733 -0.8681228599968005 0.7893324888858088 -0.9219995330437789 0.800822839648996 C -0.9224627152931162 0.7971791392875435 -0.9200232887799402 0.7936349373352076 -0.9185479675413106 0.7904647121619662 C -0.8939684295098165 0.7377202623911453 -0.8644448498391004 0.6829686895398632 -0.8391448060864151 0.6295860775588443 C -0.7829179119965033 0.6186035117801154 -0.7262312666368791 0.6080841282507238 -0.6706665516145383 0.5964428143840488" fill="#ffffff" transform="matrix(1,0,0,1,0,0)" fill-rule="nonzero"></path></g><g clip-path="url(&quot;#b&quot;)"><path d=" M -1.6891116814571814 0.6827491068438809 C -1.687766737444291 0.6843582362878747 -1.692902913942497 0.687295154846635 -1.6953251855575493 0.6889626109442489 C -1.733807053028409 0.7154943763822089 -1.7725599678896218 0.7418614547981822 -1.812016233573902 0.7697484571879066 C -1.8173891476662138 0.7735465516324718 -1.825743583052407 0.7810466730921096 -1.8299671189704374 0.7814858384840738 C -1.8346984398729262 0.7819833305296582 -1.844909035236093 0.7779484984909875 -1.8520626277536343 0.7759619612882747 C -1.9004874741769329 0.7625228140982462 -1.9510052181713105 0.7477764636711997 -1.9998246272514517 0.7352259402039738 C -1.9546077467772665 0.7028786643021133 -1.9077234102054672 0.6721988444978669 -1.8617311283360953 0.6406304009708179 C -1.8034319225528526 0.6539117230981092 -1.746762432091352 0.6688193295675177 -1.6891116814571814 0.6827491068438809" fill="#ffffff" transform="matrix(1,0,0,1,0,0)" fill-rule="nonzero"></path></g><g clip-path="url(&quot;#b&quot;)"><path d=" M -1.00899545240818 0.6806802261301749 C -1.0083229804017346 0.6841626704492657 -1.0115343773304726 0.686914316108291 -1.0131400757948417 0.6896556688284425 C -1.0410099232864425 0.7371815985900643 -1.0697066368676007 0.7878846154841768 -1.0980705454251611 0.835345356632929 C -1.153058855870549 0.846410265922651 -1.2076011389647232 0.8579246335432114 -1.2624007455307518 0.869178246712293 C -1.233731479786591 0.8175214174825084 -1.205998871479979 0.7649279308151751 -1.1767806489958632 0.7138200583253456 C -1.1212708296475178 0.702357155399156 -1.064642510941514 0.692012751830625 -1.00899545240818 0.6806802261301749" fill="#ffffff" transform="matrix(1,0,0,1,0,0)" fill-rule="nonzero"></path></g><g clip-path="url(&quot;#b&quot;)"><path d=" M -1.4281136304251043 0.9071557601783191 C -1.4833867121793438 0.917476146889477 -1.5368036339566098 0.929656124557233 -1.5917542036261259 0.9402990233531147 C -1.564402434057858 0.8877878801967746 -1.535012662592506 0.8373113079578935 -1.5075167918799997 0.7849408349661671 C -1.452895596254457 0.7738827876356945 -1.3943116191623623 0.7642314419513571 -1.3431865917744092 0.7531802565801338 C -1.334684624264353 0.7513446824809086 -1.3407368723223594 0.7572905701705482 -1.3431865917744092 0.7614660723738326 C -1.3708437185292777 0.8086317492748588 -1.4012113191876745 0.8613693370864303 -1.4281136304251043 0.9071557601783191" fill="#ffffff" transform="matrix(1,0,0,1,0,0)" fill-rule="nonzero"></path></g><g clip-path="url(&quot;#b&quot;)"><path d=" M -1.9984453734423142 0.776655019172468 C -1.9660946665608292 0.7702253633557428 -1.9578534535022516 0.8144918624738805 -1.9825633687594852 0.8242976022413303 C -2.0047377900740506 0.8330946339991125 -2.029773648395633 0.806755003420137 -2.0129446933363813 0.7849408349661668 C -2.009915138327753 0.7810157942754872 -2.006044993311069 0.7781646502073449 -1.9984453734423142 0.776655019172468" fill="#ffffff" transform="matrix(1,0,0,1,0,0)" fill-rule="nonzero"></path></g><g clip-path="url(&quot;#b&quot;)"><path d=" M -1.6566614761665792 0.8249872291458991 C -1.6557488355864036 0.8286103436296034 -1.6591832461907485 0.8312144571647659 -1.6608026685736164 0.8339626718441667 C -1.6887857383928329 0.8814062580947951 -1.7172182665428877 0.9323288576848898 -1.7457331382039358 0.9796523596486532 C -1.8001038723168743 0.9908785249807369 -1.854920633781026 1.0016552319819825 -1.908684084500389 1.0134852497280171 C -1.9038704200869065 1.0004715440114542 -1.8960066147870485 0.9875813535613812 -1.888657456430898 0.9741284824528539 C -1.867786807373726 0.9359245243315962 -1.8457256083867764 0.8961594704810912 -1.8244466727542628 0.8574408654161257 C -1.7678732497222542 0.8472645798492062 -1.7125041005385224 0.8358908823932594 -1.6566614761665792 0.8249872291458991" fill="#ffffff" transform="matrix(1,0,0,1,0,0)" fill-rule="nonzero"></path></g><g clip-path="url(&quot;#b&quot;)"><path d=" M -1.936993097383954 0.8878221899930218 C -1.919882801995475 0.8852661101726055 -1.9009369325077712 0.900798154933713 -1.9093737114049576 0.9223447069769547 C -1.918424635654969 0.9454557857290689 -1.9580593122797347 0.9404225386196046 -1.958398979262582 0.9126796373741184 C -1.9585636662845687 0.8990792341417282 -1.9511184404989261 0.8899322424622246 -1.936993097383954 0.8878221899930218" fill="#ffffff" transform="matrix(1,0,0,1,0,0)" fill-rule="nonzero"></path></g><g clip-path="url(&quot;#b&quot;)"><path d=" M -1.954038204159563 1.2675733077959084 L -0.5362613557957558 0.9614921844950101" fill="none" transform="matrix(1,0,0,1,0,0)" fill-rule="nonzero" stroke-dasharray="none" stroke-miterlimit="4" stroke-linejoin="miter" stroke-linecap="butt" stroke-width="0.002858006027391782" stroke="#ffffff"></path></g><g clip-path="url(&quot;#b&quot;)"><path d=" M -1.8852710795412995 1.6233281541035032 L -0.46126700315862523 1.314502247102829" fill="none" transform="matrix(1,0,0,1,0,0)" fill-rule="nonzero" stroke-dasharray="none" stroke-miterlimit="4" stroke-linejoin="miter" stroke-linecap="butt" stroke-width="0.002858006027391782" stroke="#ffffff"></path></g><g clip-path="url(&quot;#b&quot;)"><path d=" M -0.7111589731454839 0.9978605685170424 L -0.621198687385325 1.3550701501855187" fill="none" transform="matrix(1,0,0,1,0,0)" fill-rule="nonzero" stroke-dasharray="none" stroke-miterlimit="4" stroke-linejoin="miter" stroke-linecap="butt" stroke-width="0.002858006027391782" stroke="#ffffff"></path></g><g clip-path="url(&quot;#b&quot;)"><path d=" M -1.6053580378381407 1.5641471865567076 L -1.5443483581513693 1.823687071248279" fill="none" transform="matrix(1,0,0,1,0,0)" fill-rule="nonzero" stroke-dasharray="none" stroke-miterlimit="4" stroke-linejoin="miter" stroke-linecap="butt" stroke-width="0.002858006027391782" stroke="#ffffff"></path></g></g></g><defs><clipPath id="SvgjsClipPath1001"><path d=" M -2.1151329904790424 -0.045006274294358106 h 1.7151329904790422 v 1.9341976085377912 h -1.7151329904790422 Z"></path></clipPath><clipPath id="b"><path d=" M -2.118563970103762 -0.048437253919078084 L -0.39656902037527986 -0.048437253919078084 L -0.39656902037527986 1.8926223138681535 L -2.118563970103762 1.8926223138681535 Z"></path></clipPath></defs></svg>